<svg xmlns="http://www.w3.org/2000/svg" width="232" height="48" fill="none">
  <path fill="#4D5AE5" d="M40 24a19.937 19.937 0 0 1-5.858 14.142A19.937 19.937 0 0 1 20 44a19.937 19.937 0 0 1-14.142-5.858A19.937 19.937 0 0 1 0 24 19.938 19.938 0 0 1 5.858 9.858 19.938 19.938 0 0 1 20 4a19.937 19.937 0 0 1 14.142 5.858A19.938 19.938 0 0 1 40 24Z"/>
  <g fill="#F4F4FD" clip-path="url(#a)">
    <path d="M27.984 20.704c-.037-.85-.175-1.435-.372-1.941a3.905 3.905 0 0 0-.925-1.42 3.939 3.939 0 0 0-1.416-.921c-.51-.197-1.09-.335-1.94-.372-.857-.04-1.13-.05-3.301-.05-2.173 0-2.445.01-3.298.047-.85.037-1.434.175-1.94.372a3.903 3.903 0 0 0-1.42.925 3.94 3.94 0 0 0-.922 1.416c-.197.51-.334 1.09-.372 1.94-.04.857-.05 1.13-.05 3.301 0 2.173.01 2.445.047 3.298.037.85.175 1.435.372 1.941.203.538.519 1.019.925 1.419.4.406.885.722 1.416.922.51.197 1.09.335 1.941.372.853.038 1.125.047 3.298.047 2.172 0 2.444-.01 3.297-.047.85-.037 1.435-.175 1.941-.372a4.092 4.092 0 0 0 2.341-2.341c.197-.51.335-1.09.372-1.941.038-.853.047-1.125.047-3.298 0-2.172-.003-2.444-.04-3.297Zm-1.44 6.532c-.035.782-.166 1.204-.276 1.485a2.654 2.654 0 0 1-1.519 1.52c-.281.109-.706.24-1.484.274-.844.038-1.097.047-3.232.047-2.135 0-2.391-.01-3.232-.047-.781-.034-1.203-.165-1.485-.275a2.463 2.463 0 0 1-.919-.597 2.487 2.487 0 0 1-.597-.919c-.11-.281-.24-.706-.275-1.484-.037-.844-.047-1.098-.047-3.232 0-2.135.01-2.391.047-3.232.035-.782.166-1.203.275-1.485.128-.347.332-.662.6-.919.26-.265.572-.469.92-.597.28-.11.706-.24 1.484-.275.844-.037 1.097-.047 3.232-.047 2.138 0 2.39.01 3.232.047.781.035 1.203.166 1.485.275.346.128.662.332.918.597.266.26.47.572.597.92.11.28.241.705.276 1.484.037.844.046 1.097.046 3.232 0 2.134-.009 2.384-.046 3.228Z"/>
    <path d="M20.03 19.891a4.111 4.111 0 0 0 0 8.22 4.111 4.111 0 0 0 0-8.22Zm0 6.777a2.667 2.667 0 1 1 0-5.334 2.667 2.667 0 0 1 0 5.334Zm5.232-6.939a.96.96 0 1 1-1.92 0 .96.96 0 0 1 1.92 0Z"/>
  </g>
  <path fill="#4D5AE5" d="M104 24a19.94 19.94 0 0 1-5.858 14.142A19.937 19.937 0 0 1 84 44a19.937 19.937 0 0 1-14.142-5.858A19.937 19.937 0 0 1 64 24a19.938 19.938 0 0 1 5.858-14.142A19.937 19.937 0 0 1 84 4a19.937 19.937 0 0 1 14.142 5.858A19.94 19.94 0 0 1 104 24Z"/>
  <g clip-path="url(#b)">
    <path fill="#F4F4FD" d="M92 19.039a6.839 6.839 0 0 1-1.89.518 3.262 3.262 0 0 0 1.443-1.813 6.555 6.555 0 0 1-2.08.794 3.28 3.28 0 0 0-5.674 2.243c0 .26.022.51.076.748a9.284 9.284 0 0 1-6.761-3.431 3.285 3.285 0 0 0 1.008 4.384 3.24 3.24 0 0 1-1.482-.404v.036a3.295 3.295 0 0 0 2.628 3.223 3.274 3.274 0 0 1-.86.108 2.9 2.9 0 0 1-.621-.056 3.311 3.311 0 0 0 3.065 2.285 6.59 6.59 0 0 1-4.067 1.399c-.269 0-.527-.012-.785-.045a9.234 9.234 0 0 0 5.032 1.472c6.036 0 9.336-5 9.336-9.334 0-.145-.005-.285-.012-.424A6.544 6.544 0 0 0 92 19.039Z"/>
  </g>
  <path fill="#4D5AE5" d="M168 24a19.939 19.939 0 0 1-5.858 14.142A19.936 19.936 0 0 1 148 44a19.936 19.936 0 0 1-14.142-5.858A19.939 19.939 0 0 1 128 24a19.939 19.939 0 0 1 5.858-14.142A19.936 19.936 0 0 1 148 4a19.936 19.936 0 0 1 14.142 5.858A19.939 19.939 0 0 1 168 24Z"/>
  <g clip-path="url(#c)">
    <path fill="#F4F4FD" d="M150.665 18.657h1.46v-2.544a18.873 18.873 0 0 0-2.128-.113c-2.106 0-3.548 1.325-3.548 3.76V22h-2.324v2.844h2.324V32h2.849v-7.155h2.23l.354-2.845h-2.585v-1.959c.001-.822.222-1.384 1.368-1.384Z"/>
  </g>
  <path fill="#4D5AE5" d="M232 24a19.939 19.939 0 0 1-5.858 14.142A19.936 19.936 0 0 1 212 44a19.936 19.936 0 0 1-14.142-5.858A19.939 19.939 0 0 1 192 24a19.939 19.939 0 0 1 5.858-14.142A19.936 19.936 0 0 1 212 4a19.936 19.936 0 0 1 14.142 5.858A19.939 19.939 0 0 1 232 24Z"/>
  <g fill="#F4F4FD" clip-path="url(#d)">
    <path d="M219.996 32H220v-5.87c0-2.87-.618-5.082-3.974-5.082-1.613 0-2.696.886-3.138 1.725h-.047v-1.457h-3.182V32h3.314v-5.29c0-1.392.264-2.738 1.988-2.738 1.7 0 1.725 1.589 1.725 2.828V32h3.31Zm-15.732-10.682h3.317V32h-3.317V21.318ZM205.921 16c-1.06 0-1.921.86-1.921 1.921 0 1.06.861 1.94 1.921 1.94 1.061 0 1.922-.88 1.922-1.94A1.924 1.924 0 0 0 205.921 16Z"/>
  </g>
  <defs>
    <clipPath id="a">
      <path fill="#fff" d="M12 16h16v16H12z"/>
    </clipPath>
    <clipPath id="b">
      <path fill="#fff" d="M76 16h16v16H76z"/>
    </clipPath>
    <clipPath id="c">
      <path fill="#fff" d="M140 16h16v16h-16z"/>
    </clipPath>
    <clipPath id="d">
      <path fill="#fff" d="M204 16h16v16h-16z"/>
    </clipPath>
  </defs>
</svg>
